<svg width="48" height="48" viewBox="0 0 48 48" fill="none" xmlns="http://www.w3.org/2000/svg">
<path fill-rule="evenodd" clip-rule="evenodd" d="M24 40C32.8366 40 40 32.8366 40 24C40 19.5974 38.2219 15.6102 35.3446 12.7172L19.9954 22.2443C19.9165 24.3397 18.8295 26 17.5 26C16.8239 26 16.2105 25.5706 15.7604 24.8729L8.85083 29.1616C10.9981 35.4655 16.9695 40 24 40ZM7.07231 30.1343C5.17257 30.165 4.4275 22.2847 6.78381 18.7298C9.03703 11.3601 15.8926 6 24 6C24.9165 6 25.817 6.0685 26.6967 6.20065C29.9136 5.38503 37.0875 9.55126 36.8934 11.4397C40.0534 14.6829 42 19.1141 42 24C42 33.9411 33.9411 42 24 42C16.213 42 9.58085 37.0552 7.07231 30.1343ZM9.9751 16.293C12.6273 11.4768 17.6883 8.17362 23.5347 8.00664L9.9751 16.293ZM34.2939 11.0154L7.59208 27.5889C7.44326 26.9823 7.33195 26.1621 7.31208 25.2084C7.28418 23.8694 7.44112 22.4631 7.79553 21.3033C8.16356 20.0988 8.65008 19.4559 9.05356 19.2001L27.0766 8.18601L27.1049 8.16709L27.1063 8.16648C27.1196 8.16041 27.228 8.11075 27.5029 8.09868C27.8246 8.08454 28.2631 8.12771 28.8081 8.25348C29.9 8.50546 31.1745 9.03137 32.334 9.68179C33.149 10.139 33.8196 10.6085 34.2939 11.0154ZM33 22C33 24.2091 31.8807 26 30.5 26C29.1193 26 28 24.2091 28 22C28 19.7909 29.1193 18 30.5 18C31.8807 18 33 19.7909 33 22ZM29.4331 31.5441C28.345 30.0258 26.2715 29 23.8925 29C21.4244 29 19.285 30.1041 18.2338 31.7168C17.7803 32.4125 17.3471 34.5194 19.0005 34C23.8131 32.3992 24.2809 32.4582 29.0002 34C30.3167 34.4716 30.0702 32.5758 29.6741 31.8852C29.6262 31.8016 29.5679 31.7245 29.5097 31.6474C29.4839 31.6131 29.458 31.5789 29.4331 31.5441Z" fill="#333333"/>
</svg>
